{"title":"Stripperland 2011 DVDRip Xvid LKRG","uid":6470472,"size":892369378,"categoryP":"video","categoryS":"movies","magnet":"?xt=urn:btih:a04589440a16f1c3367796227720d7a13fedeb1c&amp;dn=Stripperland+2011+DVDRip+Xvid+LKRG&amp;tr=udp%3A%2F%2Ftracker.openbittorrent.com%3A80&amp;tr=udp%3A%2F%2Fopen.demonii.com%3A1337&amp;tr=udp%3A%2F%2Ftracker.coppersurfer.tk%3A6969&amp;tr=udp%3A%2F%2Fexodus.desync.com%3A6969","seeders":2,"leechers":2,"uploader":"HeroMaster","files":-1,"time":1308126243,"description":"Stripperland 2011 DVDRip Xvid LKRG\n\n\nPLOT\n\nIn a world where women have turned into exhibitionist man-eaters,\na small band of survivors must make their way to the safety of Grandma's house.\nAlong the way, they encounter hordes of ravenous half-dressed strippers. Will\nthey survive, or be eaten alive by millions of pole dancing zombies?\n\n\nGeneral Info\n\nEncoded By .......: BigPerm1828\nRuntime ..........: 1h 43mn\nFile Size ........: 851 MB\nResolution .......: 704x396\nIMDb URL .........: http://www.imdb.com/title/tt1710900/\nGenre ............: Comedy,Horror\nLanguage .........: English\n\n\nVideo\nID : 0\nFormat : MPEG-4 Visual\nFormat profile : Advanced Simple@L5\nFormat settings, BVOP : Yes\nFormat settings, QPel : No\nFormat settings, GMC : No warppoints\nFormat settings, Matrix : Default (H.263)\nCodec ID : XVID\nCodec ID/Hint : XviD\nDuration : 1h 43mn\nBit rate : 954 Kbps\nWidth : 704 pixels\nHeight : 396 pixels\nDisplay aspect ratio : 16:9\nFrame rate : 23.976 fps\nColor space : YUV\nChroma subsampling : 4:2:0\nBit depth : 8 bits\nScan type : Progressive\nCompression mode : Lossy\nBits/(Pixel*Frame) : 0.143\nStream size : 705 MiB (83%)\nWriting library : XviD 1.2.1 (UTC 2008-12-04)\n\n\nAudio\nID : 1\nFormat : AC-3\nFormat/Info : Audio Coding 3\nMode extension : CM (complete main)\nCodec ID : 2000\nDuration : 1h 43mn\nBit rate mode : Constant\nBit rate : 192 Kbps\nChannel(s) : 2 channels\nChannel positions : Front: L R\nSampling rate : 48.0 KHz\nBit depth : 16 bits\nCompression mode : Lossy\nVideo delay : 42ms\nStream size : 142 MiB (17%)\nAlignment : Split accross interleaves\nInterleave, duration : 500 ms (11.99 video frames)\nInterleave, preload duration : 500 ms\n\n\n\nScreens:\n\n &lt;a href=&quot;\nhttp://leetleech.org/images/29914267063216064143.png&quot; rel=&quot;nofollow&quot; target=&quot;_NEW&quot;&gt;\nhttp://leetleech.org/images/29914267063216064143.png&lt;/a&gt;\n &lt;a href=&quot;\nhttp://leetleech.org/images/76280097503540911509.png&quot; rel=&quot;nofollow&quot; target=&quot;_NEW&quot;&gt;\nhttp://leetleech.org/images/76280097503540911509.png&lt;/a&gt;\n &lt;a href=&quot;\nhttp://leetleech.org/images/11097036823262813580.png&quot; rel=&quot;nofollow&quot; target=&quot;_NEW&quot;&gt;\nhttp://leetleech.org/images/11097036823262813580.png&lt;/a&gt;\n\n\nENJOY!","torrent":{"xt":"urn:btih:a04589440a16f1c3367796227720d7a13fedeb1c","amp;dn":"Stripperland+2011+DVDRip+Xvid+LKRG","amp;tr":["udp%3A%2F%2Ftracker.openbittorrent.com%3A80","udp%3A%2F%2Fopen.demonii.com%3A1337","udp%3A%2F%2Ftracker.coppersurfer.tk%3A6969","udp%3A%2F%2Fexodus.desync.com%3A6969"],"infoHash":"a04589440a16f1c3367796227720d7a13fedeb1c","infoHashBuffer":{"type":"Buffer","data":[160,69,137,68,10,22,241,195,54,119,150,34,119,32,215,161,63,237,235,28]},"announce":[],"urlList":[]}}